.
..............................Site Info...........................

 -   http://www.scenetime.com  *_*   

SceneTime is going to Close sign up on march/1, hurry up! get in before the doors are closed.

     We care to share . Join us on  http://www.scenetime.com 

    Be the first to get new release at  http://www.scenetime.com

        Seed back for speed


...................................NFO:.................................................[IMG]http://lookpic.com/O/i2/1258/qiNKhKpL.png[/IMG]
A Warrior's Heart(2011)(DVDRip)x264-AC3-warhawk

Source                                   : A.Warriors.Heart.2011.DVDR-iGNiTiON

Encoder                                  : warhawk

General
Unique ID                                : 236299638945020402365409929196653490493 (0xB1C5A7B14E19402C8D8E03EA726BB13D)
Complete name                            : A Warrior's Heart(2011)(DVDRip)x264-AC3-warhawk.mkv
Format                                   : Matroska
Format version                           : Version 2
File size                                : 1 022 MiB
Duration                                 : 1h 34mn
Overall bit rate                         : 1 505 Kbps
Encoded date                             : UTC 2012-02-24 07:52:49
Writing application                      : mkvmerge v5.3.0 ('I could have danced') built on Feb  9 2012 10:38:07
Writing library                          : libebml v1.2.3 + libmatroska v1.3.0

Video
ID                                       : 2
Format                                   : AVC
Format/Info                              : Advanced Video Codec
Format profile                           : High@L3.1
Format settings, CABAC                   : Yes
Format settings, ReFrames                : 8 frames
Muxing mode                              : Header stripping
Codec ID                                 : V_MPEG4/ISO/AVC
Duration                                 : 1h 34mn
Bit rate                                 : 1 120 Kbps
Width                                    : 720 pixels
Height                                   : 384 pixels
Display aspect ratio                     : 1.875
Frame rate                               : 23.976 fps
Color space                              : YUV
Chroma subsampling                       : 4:2:0
Bit depth                                : 8 bits
Scan type                                : Progressive
Bits/(Pixel*Frame)                       : 0.169
Stream size                              : 741 MiB (72%)
Writing library                          : x264 core 120 r2164 da19765
Language                                 : English
Default                                  : Yes
Forced                                   : No

Audio
ID                                       : 1
Format                                   : AC-3
Format/Info                              : Audio Coding 3
Mode extension                           : CM (complete main)
Muxing mode                              : Header stripping
Codec ID                                 : A_AC3
Duration                                 : 1h 34mn
Bit rate mode                            : Constant
Bit rate                                 : 384 Kbps
Channel(s)                               : 6 channels
Channel positions                        : Front: L C R, Side: L R, LFE
Sampling rate                            : 48.0 KHz
Bit depth                                : 16 bits
Compression mode                         : Lossy
Stream size                              : 261 MiB (26%)
Default                                  : Yes
Forced                                   : No
 
http://www.imdb.com/title/tt1341340/

In shock and denial over his Marine father's death in battle, star Lacrosse player Conor Sullivan.

Ashley Greene, Kellan Lutz and Gabrielle Anwar

[IMG]http://lookpic.com/O/i2/349/7H136atd.png[/IMG]
[IMG]http://lookpic.com/O/i2/1259/KQRFof0W.png[/IMG]
[IMG]http://lookpic.com/O/i2/1841/dK7Bujhm.png[/IMG]
[IMG]http://lookpic.com/O/i2/816/W6eE63v3.png[/IMG]
[IMG]http://lookpic.com/O/i2/19/t09vvJHf.png[/IMG]
[IMG]http://lookpic.com/O/i2/322/Tl8LkEKo.png[/IMG]